# xmcd CD database file
#
# Track frame offsets:
#	150
#	27547
#	53468
#	82100
#	103811
#	125829
#	144075
#	171387
#	203526
#
# Disc length: 3017 seconds
#
# Revision: 0
# Processed by: cddbd v1.5.2PL0 Copyright (c) Steve Scherf et al.
# Submitted via: CDex 1.70beta2
#
DISCID=7a0bc709
DTITLE=MAMBebOp-Band - Live at Laboratorium
DYEAR=1999
DGENRE=Jazz
TTITLE0=Mambebop
TTITLE1=Mayreh
TTITLE2=Germans can't play ChaChaCha
TTITLE3=Straight no Chaser
TTITLE4=Another Loop
TTITLE5=Rhythmning
TTITLE6=Segment
TTITLE7=Eronel
TTITLE8=Scrapple from the Apple
EXTD=YEAR: 1999
EXTT0=
EXTT1=
EXTT2=
EXTT3=
EXTT4=
EXTT5=
EXTT6=
EXTT7=
EXTT8=
PLAYORDER=
